<svg xmlns="http://www.w3.org/2000/svg" width="192" height="192" viewBox="0 0 192 192" fill="none">
  <rect width="192" height="192" rx="38" fill="#F4EFE8"/>
  <path d="M48 132V60H76.8C85.2 60 91.76 61.92 96.48 65.76C101.2 69.44 103.56 74.8 103.56 81.84C103.56 86.48 102.36 90.4 99.96 93.6C97.56 96.8 94.16 99.16 89.76 100.68L108.72 132H88.68L72.48 103.8H66.72V132H48Z" fill="#251B14"/>
  <path d="M120 132L139.8 60H157.68L144.48 104.16H143.88L129.84 60H110.88L96.84 104.16H96.24L83.04 60H64.92L84.72 132H103.92L119.76 86.16H120.36L136.2 132H120Z" fill="#A35D3D"/>
</svg>
