<svg xmlns="http://www.w3.org/2000/svg" width="512" height="512" viewBox="0 0 512 512" fill="none">
  <rect width="512" height="512" rx="104" fill="#F4EFE8"/>
  <circle cx="386" cy="128" r="78" fill="#EAD9C8"/>
  <path d="M128 352V160H204.8C227.2 160 244.693 165.12 257.28 175.36C269.867 185.173 276.16 199.467 276.16 218.24C276.16 230.613 272.96 241.067 266.56 249.6C260.16 258.133 251.093 264.427 239.36 268.48L289.92 352H236.48L193.28 276.8H177.92V352H128Z" fill="#251B14"/>
  <path d="M320 352L372.8 160H420.48L385.28 277.76H383.68L346.24 160H295.68L258.24 277.76H256.64L221.44 160H173.12L225.92 352H277.12L319.36 229.76H320.96L363.2 352H320Z" fill="#A35D3D"/>
</svg>
